# xmcd
#
# Track frame offsets: 
#        150
#        12040
#        28310
#        50237
#        74135
#        93515
#        114890
#        134605
#        155225
#        174182
#        191305
#        209265
#        228640
#        244685
#
# Disc length: 3419 seconds
#
# Revision: 14
# Processed by: cddbd v1.5.2PL0 Copyright (c) Steve Scherf et al.
# Submitted via: ExactAudioCopyFreeDBPlugin 1.0
#
DISCID=c80d590e
DTITLE=Vários Artistas - Rei Do Gado - Nacional
DYEAR=1996
DGENRE=Soundtrack
TTITLE0=Orquestra Da Terra - Rei Do Gado
TTITLE1=Chitãozinho and Xororó - Coração Sertanejo
TTITLE2=Zé Ramalho - Admirável Gado Novo
TTITLE3=Renato Russo - La Forza Della Vita
TTITLE4=Roberta Miranda - Eu Te Amo, Te Amo, Te Amo
TTITLE5=Djavan - Correnteza
TTITLE6=Daniela Mercury - A Primeira Vista
TTITLE7=Zezé Di Camargo and Luciano - Sem Medo De Ser Feliz
TTITLE8=Leandro and Leonardo - Doce Mistério
TTITLE9=Jair Rodrigues - Vaqueiro De Profissão
TTITLE10=Shania Twain - The Woman In Me (Needs The Man In You)
TTITLE11=Orlando Morais feat. Dominguinhos - O Que Vem A Ser Felicidad
TTITLE11=e
TTITLE12=Metrópole - Cidade Grande
TTITLE13=Evara Zan - Caminhando Só
EXTD=by KamiKaze YEAR: 1995
EXTT0=Orquestra da Terra
EXTT1=Chit ozinho and Xoror
EXTT2=Z  Ramalho
EXTT3=Renato Russo
EXTT4=Roberta Miranda
EXTT5=Djavan
EXTT6=Daniela Mercury
EXTT7=Zez  di Camargo and Luciano
EXTT8=Leandro and Leonardo
EXTT9=Jair Rodrigues
EXTT10=Shania Twain
EXTT11=Orlando Morais
EXTT12=Metr pole
EXTT13=Evara Zan
PLAYORDER=
